# xmcd
#
# Track frame offsets:
# 150
# 17951
# 39097
# 54904
# 72386
# 91128
# 110052
# 127813
# 142703
# 158847
# 176653
#
# Disc length: 2607 seconds
#
#
# Revision: 3
# Processed by: cddbd v1.5.2PL0 Copyright (c) Steve Scherf et al.
# Submitted via: FreeRIP 2.50 
#
DISCID=850a2d0b
DTITLE=La Costumbre - Se Repite La Historia
DYEAR=2003
DGENRE=Norteno
TTITLE0=Esperare
TTITLE1=Como Olvidarte
TTITLE2=Mi Sol Ya No Esta
TTITLE3=Cuantas Veces Te Olvide
TTITLE4=Se Repite La Historia
TTITLE5=Mi Mundo Perfecto
TTITLE6=Vuelve A Vivir
TTITLE7=Sin Despedidas
TTITLE8=Pideme
TTITLE9=Cuanto Te Amo
TTITLE10=Mi Mundo Perfecto (Pop Version)
EXTD=
EXTT0=
EXTT1=
EXTT2=
EXTT3=
EXTT4=
EXTT5=
EXTT6=
EXTT7=
EXTT8=
EXTT9=
EXTT10=
PLAYORDER=
